<svg width="1728" height="871" viewBox="0 0 1728 871" fill="none" xmlns="http://www.w3.org/2000/svg">
<path d="M0 871L57.6 829.394C115.2 789.344 230.4 703.799 345.6 725.963C460.8 746.571 576 871 691.2 829.394C806.4 789.344 921.6 579.371 1036.8 559.929C1152 540.487 1267.2 703.799 1382.4 788.177C1497.6 871 1612.8 871 1670.4 871H1728V0H1670.4C1612.8 0 1497.6 0 1382.4 0C1267.2 0 1152 0 1036.8 0C921.6 0 806.4 0 691.2 0C576 0 460.8 0 345.6 0C230.4 0 115.2 0 57.6 0H0V871Z" fill="#032940"/>
<path d="M904.976 0C888.024 16.5322 871.072 34.213 854.121 51.8937C799.814 108.536 745.507 165.178 691.2 184.059C620.32 209.658 549.441 172.402 478.561 135.147C434.241 111.852 389.921 88.556 345.6 80.6274C235.709 59.4851 125.819 136.352 65.9255 178.246C63.0318 180.27 60.2548 182.213 57.6001 184.059L0 225.664V229.664L57.6001 188.059C60.2548 186.213 63.0317 184.27 65.9254 182.246C125.819 140.352 235.709 63.4851 345.6 84.6274C389.921 92.556 434.241 115.852 478.561 139.147C549.441 176.402 620.32 213.658 691.2 188.059C745.507 169.178 799.814 112.536 854.121 55.8937C872.447 36.7787 890.774 17.6637 909.101 0H904.976Z" fill="white" fill-opacity="0.05"/>
<path d="M949.487 0C917.698 25.5821 885.909 58.7379 854.121 91.8937C799.814 148.536 745.507 205.178 691.2 224.059C620.32 249.658 549.441 212.402 478.561 175.147C434.241 151.851 389.921 128.556 345.6 120.627C235.709 99.4851 125.819 176.352 65.9255 218.246C63.0318 220.27 60.2548 222.213 57.6001 224.059L0 265.664V269.664L57.6001 228.059C60.2548 226.213 63.0317 224.27 65.9254 222.246C125.819 180.352 235.709 103.485 345.6 124.627C389.921 132.556 434.241 155.852 478.561 179.147C549.441 216.402 620.32 253.658 691.2 228.059C745.507 209.178 799.814 152.536 854.121 95.8937C887.593 60.9818 921.065 26.0699 954.538 0H949.487Z" fill="white" fill-opacity="0.05"/>
<path d="M1166.37 0H1171.98C1207.37 25.6493 1242.76 58.8867 1278.16 92.1242C1312.9 124.757 1347.65 157.39 1382.4 182.842C1497.6 265.664 1612.8 265.664 1670.4 265.664H1728V269.664H1670.4C1612.8 269.664 1497.6 269.664 1382.4 186.842C1347.65 161.39 1312.9 128.757 1278.16 96.1242C1240.89 61.131 1203.63 26.1378 1166.37 0Z" fill="white" fill-opacity="0.05"/>
<path d="M1016.26 0C962.212 19.1502 908.166 75.52 854.121 131.89C799.814 188.532 745.507 245.174 691.2 264.055C620.32 289.654 549.441 252.398 478.561 215.143C434.241 191.848 389.921 168.552 345.6 160.623C235.709 139.481 125.819 216.348 65.9254 258.242C63.0317 260.266 60.2548 262.209 57.6001 264.055L0 305.661V309.661L57.6001 268.055C60.2548 266.209 63.0317 264.266 65.9254 262.242C125.819 220.348 235.709 143.481 345.6 164.623C389.921 172.552 434.241 195.848 478.561 219.143C549.441 256.398 620.32 293.654 691.2 268.055C745.507 249.174 799.814 192.532 854.121 135.89C912.683 74.8086 971.246 13.7273 1029.81 0H1016.26Z" fill="white" fill-opacity="0.05"/>
<path d="M1083.16 0H1098C1158.05 19.3277 1218.1 75.724 1278.16 132.12C1312.9 164.753 1347.65 197.386 1382.4 222.838C1497.6 305.661 1612.8 305.661 1670.4 305.661H1728V309.661H1670.4C1612.8 309.661 1497.6 309.661 1382.4 226.838C1347.65 201.386 1312.9 168.753 1278.16 136.12C1213.16 75.0798 1148.16 14.0393 1083.16 0Z" fill="white" fill-opacity="0.05"/>
<path d="M1216.84 0H1221.42C1240.33 16.6029 1259.24 34.3635 1278.16 52.1242C1312.9 84.7573 1347.65 117.39 1382.4 142.842C1497.6 225.664 1612.8 225.664 1670.4 225.664H1728V229.664H1670.4C1612.8 229.664 1497.6 229.664 1382.4 146.842C1347.65 121.39 1312.9 88.7573 1278.16 56.1242C1257.72 36.9289 1237.28 17.7336 1216.84 0Z" fill="white" fill-opacity="0.05"/>
<path d="M0 349.664L57.6001 308.059C60.2548 306.213 63.0317 304.27 65.9254 302.246C125.819 260.352 235.709 183.485 345.6 204.627C389.921 212.556 434.241 235.852 478.561 259.147C549.441 296.402 620.32 333.658 691.2 308.059C745.507 289.178 799.814 232.536 854.121 175.894C915.014 112.382 975.907 48.8698 1036.8 38.593C1117.25 25.0155 1197.7 100.57 1278.16 176.124C1312.9 208.757 1347.65 241.39 1382.4 266.842C1497.6 349.664 1612.8 349.664 1670.4 349.664H1728V345.664H1670.4C1612.8 345.664 1497.6 345.664 1382.4 262.842C1347.65 237.39 1312.9 204.757 1278.16 172.124C1197.7 96.5698 1117.25 21.0155 1036.8 34.593C975.907 44.8698 915.014 108.382 854.121 171.894C799.814 228.536 745.507 285.178 691.2 304.059C620.32 329.658 549.441 292.402 478.561 255.147C434.241 231.851 389.921 208.556 345.6 200.627C235.709 179.485 125.819 256.352 65.9254 298.246C63.0317 300.27 60.2548 302.213 57.6001 304.059L0 345.664V349.664Z" fill="white" fill-opacity="0.05"/>
</svg>
