<svg width="1728" height="119" viewBox="0 0 1728 119" fill="none" xmlns="http://www.w3.org/2000/svg">
<path d="M36 60.6999L0 78.6175V119H1728V78.6175L1692 56.2205C1656 33.8234 1584 -10.9708 1512 2.46748C1473 9.74653 1434 34.1111 1395 58.4757C1362 79.0919 1329 99.7081 1296 109.973C1243.2 126.398 1190.4 116.324 1137.6 106.251C1118.4 102.587 1099.2 98.9242 1080 96.5352C1051.2 92.9517 1022.4 92.235 993.6 91.5183C950.4 90.4432 907.2 89.3681 864 78.6175C840 72.645 816 63.6862 792 54.7273C744 36.8097 696 18.892 648 24.8646C614.769 28.9994 581.538 44.5846 548.308 60.1698C509.538 78.3525 470.769 96.5352 432 96.5352C391.68 96.5352 351.36 76.8688 311.04 57.2024C279.36 41.7502 247.68 26.298 216 20.3851C144 6.9469 72 42.7822 36 60.6999Z" fill="#032940"/>
</svg>
