<svg width="1728" height="350" viewBox="0 0 1728 350" fill="none" xmlns="http://www.w3.org/2000/svg">
<path d="M904.976 0C888.024 16.5332 871.072 34.2129 854.121 51.8945C799.814 108.535 745.507 165.178 691.2 184.059C620.32 209.658 549.441 172.402 478.562 135.146C434.241 111.852 389.92 88.5566 345.6 80.627C235.709 59.4844 125.819 136.352 65.9253 178.246C63.0317 180.27 60.2549 182.213 57.6001 184.059L0 225.664V229.664L57.6001 188.059C60.2549 186.213 63.0317 184.27 65.9253 182.246C125.819 140.352 235.709 63.4844 345.6 84.627C389.92 92.5566 434.241 115.852 478.562 139.146C549.441 176.402 620.32 213.658 691.2 188.059C745.507 169.178 799.814 112.535 854.121 55.8945C872.447 36.7793 890.774 17.6641 909.101 0H904.976Z" fill="white" fill-opacity="0.05"/>
<path d="M949.486 0C917.698 25.582 885.909 58.7383 854.121 91.8945C799.814 148.535 745.507 205.178 691.2 224.059C620.32 249.658 549.441 212.402 478.562 175.146C434.241 151.852 389.92 128.557 345.6 120.627C235.709 99.4844 125.819 176.352 65.9253 218.246L62.3682 220.734L57.6001 224.059L0 265.664V269.664L57.6001 228.059C60.2549 226.213 63.0317 224.27 65.9253 222.246C125.819 180.352 235.709 103.484 345.6 124.627C389.92 132.557 434.241 155.852 478.562 179.146C549.441 216.402 620.32 253.658 691.2 228.059C745.507 209.178 799.814 152.535 854.121 95.8945C887.593 60.9824 921.065 26.0703 954.537 0H949.486Z" fill="white" fill-opacity="0.05"/>
<path d="M1166.37 0H1171.98C1207.37 25.6484 1242.76 58.8867 1278.16 92.125C1312.9 124.758 1347.65 157.391 1382.4 182.842C1497.6 265.664 1612.8 265.664 1670.4 265.664H1728V269.664H1670.4C1612.8 269.664 1497.6 269.664 1382.4 186.842C1347.65 161.391 1312.9 128.758 1278.16 96.125C1240.89 61.1309 1203.63 26.1387 1166.37 0Z" fill="white" fill-opacity="0.05"/>
<path d="M1016.26 0C962.212 19.1484 908.167 75.5195 854.121 131.891C799.814 188.531 745.507 245.174 691.2 264.055C620.32 289.654 549.441 252.398 478.562 215.143C434.241 191.848 389.92 168.553 345.6 160.623C235.709 139.48 125.819 216.348 65.9253 258.242L64.9653 258.914C62.416 260.697 59.96 262.414 57.6001 264.055L0 305.66V309.66L57.6001 268.055C59.96 266.414 62.416 264.697 64.9653 262.914L65.9253 262.242C125.819 220.348 235.709 143.48 345.6 164.623C389.92 172.553 434.241 195.848 478.562 219.143C549.441 256.398 620.32 293.654 691.2 268.055C745.507 249.174 799.814 192.531 854.121 135.891C912.684 74.8066 971.247 13.7246 1029.81 0H1016.26Z" fill="white" fill-opacity="0.05"/>
<path d="M1083.16 0H1098C1158.05 19.3262 1218.1 75.7246 1278.16 132.121C1312.9 164.754 1347.65 197.387 1382.4 222.838C1497.6 305.66 1612.8 305.66 1670.4 305.66H1728V309.66H1670.4C1612.8 309.66 1497.6 309.66 1382.4 226.838C1347.65 201.387 1312.9 168.754 1278.16 136.121C1213.16 75.0801 1148.16 14.0391 1083.16 0Z" fill="white" fill-opacity="0.05"/>
<path d="M1216.84 0H1221.42C1240.33 16.6035 1259.24 34.3633 1278.16 52.125C1312.9 84.7578 1347.65 117.391 1382.4 142.842C1497.6 225.664 1612.8 225.664 1670.4 225.664H1728V229.664H1670.4C1612.8 229.664 1497.6 229.664 1382.4 146.842C1347.65 121.391 1312.9 88.7578 1278.16 56.125C1257.72 36.9297 1237.28 17.7344 1216.84 0Z" fill="white" fill-opacity="0.05"/>
<path d="M0 349.664L57.6001 308.059C59.96 306.418 62.416 304.701 64.9653 302.918L65.9253 302.246C125.819 260.352 235.709 183.484 345.6 204.627C389.92 212.557 434.241 235.852 478.562 259.146C549.441 296.402 620.32 333.658 691.2 308.059C745.507 289.178 799.814 232.535 854.121 175.895C915.014 112.381 975.907 48.8691 1036.8 38.5938C1117.25 25.0156 1197.7 100.57 1278.16 176.125C1312.9 208.758 1347.65 241.391 1382.4 266.842C1497.6 349.664 1612.8 349.664 1670.4 349.664H1728V345.664H1670.4C1612.8 345.664 1497.6 345.664 1382.4 262.842C1347.65 237.391 1312.9 204.758 1278.16 172.125C1197.7 96.5703 1117.25 21.0156 1036.8 34.5938C975.907 44.8691 915.014 108.381 854.121 171.895C799.814 228.535 745.507 285.178 691.2 304.059C620.32 329.658 549.441 292.402 478.562 255.146C434.241 231.852 389.92 208.557 345.6 200.627C235.709 179.484 125.819 256.352 65.9253 298.246C63.0317 300.27 60.2549 302.213 57.6001 304.059L0 345.664V349.664Z" fill="white" fill-opacity="0.05"/>
</svg>
