<svg width="691" height="820" viewBox="0 0 691 820" fill="none" xmlns="http://www.w3.org/2000/svg">
<path fill-rule="evenodd" clip-rule="evenodd" d="M414.484 16.4216C489.83 0.638243 590.443 -19.2322 640.316 39.4621C696.332 105.387 639.798 208.609 650.732 294.459C656.822 342.268 693.794 382.927 690.182 430.987C686.663 477.803 649.476 512.969 631.062 556.148C609.709 606.215 607.579 663.778 572.988 705.787C530.969 756.817 480.548 819.629 414.484 819.171C348.331 818.712 315.362 735.226 257.243 703.596C197.006 670.814 104.232 689.506 68.5456 630.905C33.0672 572.645 100.723 498.553 91.2334 430.987C79.4548 347.121 -28.9476 272.215 7.43022 195.751C42.5478 121.936 162.583 156.811 237.342 123.876C301.631 95.553 345.732 30.8234 414.484 16.4216Z" fill="#D396CF"/>
</svg>
