<svg width="1728" height="313" viewBox="0 0 1728 313" fill="none" xmlns="http://www.w3.org/2000/svg">
<path d="M0 0V313L57.6 271.394C60.2419 269.557 63.005 267.625 65.8837 265.611L65.9108 265.592L65.923 265.583L65.9255 265.582C125.819 223.687 235.709 146.821 345.6 167.963C389.92 175.892 434.241 199.187 478.561 222.483C549.441 259.738 620.32 296.993 691.2 271.394C745.507 252.514 799.814 195.872 854.12 139.229C915.014 75.7173 975.907 12.2054 1036.8 1.92859C1117.25 -11.649 1197.7 63.9054 1278.16 139.46C1312.9 172.093 1347.65 204.726 1382.4 230.177C1497.6 313 1612.8 313 1670.4 313H1728V0H0Z" fill="#032940"/>
</svg>
