<svg width="54" height="54" viewBox="0 0 54 54" fill="none" xmlns="http://www.w3.org/2000/svg">
<path d="M0 22.168V0H5.134L10.914 11.016L13.09 15.912H13.226C13.1353 14.7333 13.0107 13.4187 12.852 11.968C12.6933 10.5173 12.614 9.13467 12.614 7.82V0H17.374V22.168H12.24L6.46 11.118L4.284 6.29H4.148C4.26133 7.514 4.386 8.82867 4.522 10.234C4.68067 11.6393 4.76 12.9993 4.76 14.314V22.168H0Z" fill="currentColor"/>
<path d="M22.6113 22.168V0H27.6093V22.168H22.6113Z" fill="currentColor"/>
<path d="M32.8379 22.168V0H37.8359V9.078H37.9719L44.5679 0H50.0759L43.3779 8.84L51.2999 22.168H45.8259L40.4199 12.818L37.8359 16.218V22.168H32.8379Z" fill="currentColor"/>
<path d="M0 52.168V30H4.998V47.952H13.77V52.168H0Z" fill="currentColor"/>
<path d="M22.6004 40.948L22.0564 42.988H26.7824L26.2724 40.948C25.9778 39.8373 25.6718 38.6587 25.3544 37.412C25.0598 36.1653 24.7651 34.964 24.4704 33.808H24.3344C24.0624 34.9867 23.7791 36.1993 23.4844 37.446C23.2124 38.67 22.9178 39.8373 22.6004 40.948ZM14.5764 52.168L21.5124 30H27.5304L34.4664 52.168H29.1624L27.8024 46.898H21.0364L19.6764 52.168H14.5764Z" fill="currentColor"/>
<path d="M43.6547 52.576C42.204 52.576 40.7533 52.304 39.3027 51.76C37.8747 51.216 36.594 50.4227 35.4607 49.38L38.3167 45.946C39.11 46.626 39.994 47.1813 40.9687 47.612C41.9433 48.0427 42.884 48.258 43.7907 48.258C44.8333 48.258 45.604 48.0653 46.1027 47.68C46.624 47.2947 46.8847 46.7733 46.8847 46.116C46.8847 45.4133 46.59 44.9033 46.0007 44.586C45.434 44.246 44.6633 43.872 43.6887 43.464L40.7987 42.24C40.0507 41.9227 39.3367 41.5033 38.6567 40.982C37.9767 40.438 37.4213 39.7693 36.9907 38.976C36.56 38.1827 36.3447 37.2533 36.3447 36.188C36.3447 34.964 36.6733 33.8533 37.3307 32.856C38.0107 31.8587 38.94 31.0653 40.1187 30.476C41.32 29.8867 42.6913 29.592 44.2327 29.592C45.502 29.592 46.7713 29.8413 48.0407 30.34C49.31 30.8387 50.4207 31.564 51.3727 32.516L48.8227 35.678C48.0973 35.1113 47.372 34.6807 46.6467 34.386C45.9213 34.0687 45.1167 33.91 44.2327 33.91C43.3713 33.91 42.68 34.0913 42.1587 34.454C41.66 34.794 41.4107 35.2813 41.4107 35.916C41.4107 36.596 41.728 37.106 42.3627 37.446C43.02 37.786 43.8247 38.1487 44.7767 38.534L47.6327 39.69C48.97 40.234 50.0353 40.982 50.8287 41.934C51.622 42.886 52.0187 44.144 52.0187 45.708C52.0187 46.932 51.69 48.0653 51.0327 49.108C50.3753 50.1507 49.4233 50.9893 48.1767 51.624C46.93 52.2587 45.4227 52.576 43.6547 52.576Z" fill="currentColor"/>
</svg>
