<?xml version="1.0" standalone="no"?>
<!DOCTYPE svg PUBLIC "-//W3C//DTD SVG 20010904//EN"
 "http://www.w3.org/TR/2001/REC-SVG-20010904/DTD/svg10.dtd">
<svg version="1.0" xmlns="http://www.w3.org/2000/svg"
 width="700.000000pt" height="700.000000pt" viewBox="0 0 700.000000 700.000000"
 preserveAspectRatio="xMidYMid meet">
<metadata>
Created by potrace 1.14, written by Peter Selinger 2001-2017
</metadata>
<g transform="translate(0.000000,700.000000) scale(0.100000,-0.100000)"
fill="#000000" stroke="none">
<path d="M0 5566 c0 -1138 3 -1435 13 -1438 10 -3 515 -2 583 1 l22 1 -3 648
c-2 356 -6 667 -9 692 -2 25 -8 76 -11 115 -4 38 -9 81 -10 95 -2 14 -6 63 -9
110 -4 47 -9 101 -11 120 -21 169 -28 286 -16 274 6 -6 70 -141 142 -300 157
-348 164 -363 399 -809 26 -49 75 -142 108 -205 33 -63 111 -214 175 -335 63
-121 137 -263 164 -314 l49 -95 332 0 332 -1 0 60 c1 81 1 2425 0 2643 l0 172
-307 -2 -308 -3 1 -585 c1 -517 6 -728 19 -850 2 -19 7 -64 10 -100 3 -36 8
-81 10 -100 5 -43 15 -141 20 -195 13 -129 16 -225 8 -225 -4 0 -66 132 -137
293 -109 247 -259 557 -326 672 -10 17 -52 97 -95 180 -42 82 -96 185 -120
230 -23 44 -75 143 -116 220 -40 77 -99 190 -131 250 -32 61 -70 134 -85 163
l-25 52 -334 0 -334 0 0 -1434z"/>
<path d="M2930 5563 l0 -1438 303 1 c166 1 312 2 325 3 l22 1 0 1435 0 1435
-325 0 -325 0 0 -1437z"/>
<path d="M4255 5565 c0 -1428 0 -1435 20 -1436 135 -7 625 -2 628 6 2 6 3 179
2 385 l-1 375 151 200 c159 211 182 241 189 234 2 -2 39 -65 81 -139 43 -74
134 -232 203 -350 68 -118 188 -325 265 -460 77 -135 142 -247 144 -249 4 -6
694 -8 706 -3 4 2 4 9 -1 15 -5 7 -59 95 -119 197 -61 102 -189 319 -286 482
-98 164 -185 311 -194 327 -10 17 -40 67 -68 113 -237 397 -305 512 -305 517
0 3 -9 17 -20 31 -11 14 -20 31 -20 39 0 8 68 104 152 215 180 237 395 521
557 734 64 85 124 164 134 178 l19 24 -359 0 -358 -1 -320 -441 c-176 -243
-366 -506 -423 -585 -57 -78 -108 -143 -115 -143 -9 0 -12 135 -12 583 l0 582
-325 3 -325 2 0 -1435z"/>
<path d="M5657 3164 c-1 -1 -35 -5 -75 -8 -166 -16 -360 -83 -493 -173 -155
-103 -299 -281 -335 -413 -2 -8 -11 -40 -20 -70 -8 -30 -17 -104 -19 -165 -6
-192 36 -336 137 -477 113 -157 251 -255 518 -368 80 -33 154 -65 165 -70 11
-5 70 -30 130 -55 192 -82 337 -162 366 -203 36 -52 47 -90 44 -153 -12 -197
-199 -291 -505 -256 -165 19 -396 125 -556 254 -23 18 -43 33 -46 33 -4 0 -50
-53 -200 -235 -9 -11 -50 -60 -92 -110 -42 -49 -76 -93 -76 -96 0 -8 115 -100
194 -153 165 -113 425 -214 617 -240 25 -4 58 -9 74 -12 91 -16 329 -8 460 16
477 88 796 436 797 869 0 149 -23 253 -84 377 -31 62 -48 86 -117 159 -121
128 -206 175 -599 335 -459 185 -535 230 -562 326 -17 59 -7 145 21 190 76
123 290 169 534 114 75 -17 215 -82 308 -144 l88 -59 23 29 c13 16 88 108 165
204 l141 175 -53 48 c-186 170 -468 294 -734 323 -53 6 -212 11 -216 8z"/>
<path d="M2 1673 l3 -1436 870 0 c479 1 879 2 890 2 20 1 20 7 20 264 0 144
-3 267 -7 272 -4 6 -204 10 -567 10 l-561 -1 0 861 c0 473 0 996 0 1163 l1
302 -326 0 -325 0 2 -1437z"/>
<path d="M2785 3098 c-3 -7 -43 -134 -89 -283 -140 -449 -281 -899 -346 -1105
-34 -107 -68 -215 -75 -240 -14 -50 -98 -317 -152 -485 -19 -60 -41 -130 -48
-155 -7 -25 -32 -103 -55 -175 -22 -71 -43 -137 -45 -145 -2 -8 -18 -60 -35
-115 -18 -55 -35 -112 -40 -127 -6 -20 -5 -28 3 -29 7 0 155 -1 329 -2 l317
-2 20 75 c33 123 112 429 135 522 l21 88 223 0 c274 1 432 1 560 0 l99 0 13
-58 c8 -31 15 -61 16 -67 7 -31 109 -421 125 -479 10 -38 23 -72 28 -75 13 -8
660 -5 668 3 4 3 -17 81 -46 174 -29 92 -63 201 -76 242 -22 74 -137 440 -295
945 -175 557 -295 942 -354 1133 -22 71 -66 210 -102 325 l-16 47 -389 0
c-303 0 -391 -3 -394 -12z m420 -606 c16 -64 30 -125 32 -135 2 -10 46 -187
99 -395 134 -528 134 -526 129 -530 -4 -5 -595 -5 -600 -1 -2 2 5 36 15 74 17
67 26 100 85 318 15 54 28 106 30 115 2 9 34 143 70 297 36 154 71 303 77 332
6 32 15 50 22 47 7 -3 25 -57 41 -122z"/>
</g>
</svg>
